<svg width="600" height="179" viewBox="0 0 600 179" fill="none" xmlns="http://www.w3.org/2000/svg">
<path d="M181.48 38.6V63.72H176.32V47.16C175.36 48.7333 174.533 49.8933 173.84 50.64L172.44 44.4C175.747 39.84 178.067 34.1467 179.4 27.32L184.32 28.2C183.68 32.04 182.733 35.5067 181.48 38.6ZM190.52 62.28V63.72H185.32V51.52H208.88V63.72H203.52V62.28H190.52ZM186.4 32.44V28.4H208.72V32.44H186.4ZM183.84 38.44V34.12H210.8V38.44H183.84ZM185.72 44.08V40.2H208.48V44.08H185.72ZM185.72 49.76V45.88H208.48V49.76H185.72ZM203.52 58.36V55.44H190.52V58.36H203.52ZM241.2 46.36H248.8V44.24H241.2V46.36ZM241.2 51.92H248.8V49.68H241.2V51.92ZM222.6 45.92H224.6V40.88H222.6V45.92ZM231.16 45.92V40.88H229.12V45.92H231.16ZM224 49.88H222.6H218.4V36.92H224.48V34.4H217.12V30.12H224.48V27.08H229.28V30.12H235.32V28.32H254.68V32.6H247.24C247.08 33.32 246.893 34.08 246.68 34.88H253.72V55.88H248.28C251 57.2133 253.36 58.6933 255.36 60.32L253.04 64.08C250.56 62.24 247.893 60.6133 245.04 59.2L247.08 55.88H242.04L244.24 58.88C242.187 60.9067 239.507 62.5867 236.2 63.92L233.92 59.96C236.747 58.7867 239.093 57.4267 240.96 55.88H236.48V34.88H241.4C241.48 34.6133 241.573 34.2267 241.68 33.72C241.813 33.2133 241.907 32.84 241.96 32.6H235.48V34.4H229.28V36.92H235.08V49.88H231.16H230.12C231.72 51.2933 233.68 52.6533 236 53.96L234.32 58.36C232.533 57.1867 230.853 55.8533 229.28 54.36V63.72H224.48V55.56C222.8 57.8267 220.827 59.88 218.56 61.72L216.52 57.36C219.693 55.0667 222.187 52.5733 224 49.88ZM248.8 40.88V38.84H241.2V40.88H248.8ZM276.52 49.08V42.12H283.48V49.08H276.52ZM325.4 52.08C327.56 50.1867 329.267 47.72 330.52 44.68H320.4C319.44 46.3067 318.387 47.84 317.24 49.28C319.533 49.9467 322.253 50.88 325.4 52.08ZM336.08 34.88H311.92V38.8H306.92V30.72H321.28V26.92H326.72V30.72H341.08V38.8H336.08V34.88ZM306.12 44.68V40.28H316.88C317.547 38.8933 318.24 37.32 318.96 35.56L324.32 36.08C323.893 37.3867 323.347 38.7867 322.68 40.28H341.88V44.68H335.96C334.68 48.52 332.827 51.6933 330.4 54.2C333.92 55.8267 337.52 57.6933 341.2 59.8L338.2 63.72C333.907 61.16 329.987 59.0667 326.44 57.44C322.253 60.1333 316.2 62.0933 308.28 63.32L307 58.92C312.867 58.04 317.467 56.7733 320.8 55.12C318.72 54.3467 316.493 53.6133 314.12 52.92C313.96 53.08 313.72 53.3333 313.4 53.68C313.08 54 312.84 54.24 312.68 54.4L308.56 51.88C310.827 49.5333 312.76 47.1333 314.36 44.68H306.12ZM358.52 32.08L359.76 27.6C365.787 28.4 372.067 30.0533 378.6 32.56L377 37.12C370.733 34.64 364.573 32.96 358.52 32.08ZM348.6 57.8C350.147 53.2667 351.213 47.4133 351.8 40.24L356.76 40.76C356.387 48.1733 355.32 54.4 353.56 59.44L348.6 57.8ZM365.08 36.8V56.28C365.08 57.32 365.147 57.9467 365.28 58.16C365.413 58.3733 365.787 58.5067 366.4 58.56C367.2 58.64 368.093 58.68 369.08 58.68C369.907 58.68 370.787 58.64 371.72 58.56C372.787 58.4533 373.427 58 373.64 57.2C373.88 56.3733 374.093 53.7733 374.28 49.4L379.32 50.2C379.24 52.28 379.16 53.9467 379.08 55.2C379 56.4267 378.853 57.56 378.64 58.6C378.453 59.6133 378.267 60.36 378.08 60.84C377.893 61.32 377.573 61.7333 377.12 62.08C376.693 62.4267 376.267 62.64 375.84 62.72C375.413 62.8267 374.8 62.92 374 63C372.453 63.1333 370.893 63.2 369.32 63.2C367.56 63.2 366 63.16 364.64 63.08C362.4 62.9733 361 62.5733 360.44 61.88C359.88 61.1867 359.6 59.5333 359.6 56.92V36.8H365.08ZM378.4 40.2L383.24 39.04C385 44.9067 386.387 51.1333 387.4 57.72L382.4 58.72C381.387 51.92 380.053 45.7467 378.4 40.2ZM413.571 56.929C416.26 56.5837 418.332 55.5353 419.787 53.784C421.242 52.0327 421.97 49.6647 421.97 46.68C421.97 44.1147 421.181 41.9563 419.602 40.205C418.048 38.429 416.013 37.3683 413.497 37.023C412.905 41.7097 412.202 45.644 411.388 48.826C410.599 51.9833 409.711 54.3883 408.724 56.041C407.762 57.6937 406.775 58.853 405.764 59.519C404.777 60.1603 403.643 60.481 402.36 60.481C400.362 60.481 398.524 59.334 396.847 57.04C395.17 54.746 394.331 51.9463 394.331 48.641C394.331 43.8557 395.959 39.9707 399.215 36.986C402.471 34.0013 406.726 32.509 411.98 32.509C416.223 32.509 419.725 33.841 422.488 36.505C425.275 39.169 426.669 42.5607 426.669 46.68C426.669 50.972 425.571 54.413 423.376 57.003C421.205 59.593 418.27 61.0483 414.57 61.369L413.571 56.929ZM408.613 37.245C405.628 37.8123 403.285 39.1073 401.583 41.13C399.881 43.1527 399.03 45.6563 399.03 48.641C399.03 50.5157 399.412 52.1807 400.177 53.636C400.942 55.0913 401.669 55.819 402.36 55.819C402.705 55.819 403.063 55.6587 403.433 55.338C403.803 54.9927 404.21 54.376 404.654 53.488C405.123 52.6 405.579 51.4777 406.023 50.121C406.467 48.7643 406.911 46.976 407.355 44.756C407.824 42.536 408.243 40.0323 408.613 37.245Z" fill="#222222"/>
<path d="M12 95.3H88.7V97.7C88.7 120.833 83.3333 138.267 72.6 150C61.8667 161.667 45.2333 168.567 22.7 170.7L20.3 158.3C38.0333 156.567 51.1333 151.8 59.6 144C68.1333 136.2 73.0333 124.2 74.3 108H12V95.3ZM168 91.3H182.3V118.7C182.3 135.9 178.1 148.833 169.7 157.5C161.367 166.1 148.167 171.267 130.1 173L127.3 160.7C142.7 158.833 153.333 154.867 159.2 148.8C165.067 142.733 168 132.8 168 119V91.3ZM117.7 136.3V91.3H131.7V136.3H117.7ZM208.7 137.7V124.3H291.3V137.7H208.7ZM311.3 106V94.3H392.3V106C390.367 112.533 387 118.767 382.2 124.7C377.467 130.567 371.9 135.333 365.5 139L357.7 128.7C368.233 122.367 375 114.8 378 106H311.3ZM337.3 114H350.7C350.7 125.667 349.8 135.1 348 142.3C346.267 149.5 343.467 155.367 339.6 159.9C335.733 164.367 330.233 168.267 323.1 171.6L316.2 160.9C324.4 157.033 329.967 151.9 332.9 145.5C335.833 139.033 337.3 128.533 337.3 114ZM408.7 137.7V124.3H491.3V137.7H408.7ZM522.7 91.7H536.3V112C536.3 125.533 535.533 136.067 534 143.6C532.467 151.067 530.067 156.833 526.8 160.9C523.533 164.9 518.633 168.467 512.1 171.6L504.9 160.4C508.167 158.733 510.733 157.167 512.6 155.7C514.467 154.167 516.133 152.333 517.6 150.2C519.133 148.067 520.2 145.3 520.8 141.9C521.467 138.433 521.933 134.433 522.2 129.9C522.533 125.3 522.7 119.333 522.7 112V91.7ZM563.2 156.7C569.6 155.033 574.467 151.6 577.8 146.4C581.2 141.133 583.367 133.533 584.3 123.6L597 125.4C594.333 155.6 579.233 170.7 551.7 170.7H549.3V91.7H563.2V156.7Z" fill="#4789B6"/>
<circle cx="197" cy="9" r="9" fill="#4789B6"/>
<circle cx="237" cy="9" r="9" fill="#4789B6"/>
<circle cx="361" cy="9" r="9" fill="#4789B6"/>
<circle cx="321" cy="9" r="9" fill="#4789B6"/>
</svg>
